<svg id="Capa_1" enable-background="new 0 0 511.821 511.821" height="512" viewBox="0 0 511.821 511.821" width="512" xmlns="http://www.w3.org/2000/svg"><g><path d="m30.917 18.793v120h-30.917l76.008 120.334 74.916-120.334h-30.008v-120zm44.908 183.866-21.392-33.866h6.484v-120h30v120h5.992z"/><path d="m480.917 138.793h30.904l-76.076-125.765-74.071 125.766h29.243v120h90zm-30-30v120h-30v-120h-6.757l21.929-37.234 22.523 37.234z"/><path d="m180.917 288.793c-57.897 0-105 47.103-105 105v105h360v-105c0-57.897-47.103-105-105-105h-30v-15.041c18.204-13.697 30-35.475 30-59.959v-60c0-41.355-33.645-75-75-75h-75v135c0 24.484 11.796 46.262 30 59.959v15.041zm150 180h-150v-90h150zm0-150c41.355 0 75 33.645 75 75v75h-45v-120h-210v120h-45v-75c0-41.355 33.645-75 75-75h32.58c6.192 17.458 22.865 30 42.42 30s36.228-12.542 42.42-30zm-75-60c-24.813 0-45-20.187-45-45v-45h90v45c0 24.813-20.188 45-45 45zm0-150c19.555 0 36.228 12.542 42.42 30h-87.42v-30zm0 180c5.136 0 10.152-.521 15-1.509v16.509c0 8.271-6.729 15-15 15s-15-6.729-15-15v-16.509c4.848.988 9.864 1.509 15 1.509z"/><path d="m240.917 408.793h30v30h-30z"/></g></svg>